<svg xmlns="http://www.w3.org/2000/svg" viewBox="0 0 100 100" width="100%" height="100%">
  <g>
    <!-- Center gear / hub body -->
    <path d="M50,35.4c-6.5,0-12,4.4-13.9,10.3H6.7c-2.3,0-4.2,1.9-4.2,4.2c0,2.3,1.9,4.2,4.2,4.2h29.4c1.8,6,7.3,10.3,13.9,10.3c8,0,14.6-6.5,14.6-14.6C64.6,42,58,35.4,50,35.4z"/>
    <!-- Top tooth -->
    <path d="M50,25.1c2.3,0,4.2-1.9,4.2-4.2V6.7c0-2.3-1.9-4.2-4.2-4.2s-4.2,1.9-4.2,4.2v14.2C45.8,23.2,47.7,25.1,50,25.1z"/>
    <!-- Top-left diagonal tooth -->
    <path d="M26.4,32.4c0.8,0.8,1.9,1.2,3,1.2s2.2-0.4,3-1.2c1.7-1.7,1.7-4.3,0-6L26,20.1c-1.7-1.7-4.3-1.7-6,0c-1.7,1.7-1.7,4.3,0,6L26.4,32.4z"/>
    <!-- Bottom-left diagonal tooth -->
    <path d="M26.4,67.6L20.1,74c-1.7,1.7-1.7,4.3,0,6c0.8,0.8,1.9,1.2,3,1.2s2.2-0.4,3-1.2l6.4-6.4c1.7-1.7,1.7-4.3,0-6C30.7,65.9,28.1,65.9,26.4,67.6z"/>
    <!-- Bottom tooth -->
    <path d="M50,74.9c-2.3,0-4.2,1.9-4.2,4.2v14.2c0,2.3,1.9,4.2,4.2,4.2s4.2-1.9,4.2-4.2V79.1C54.2,76.8,52.3,74.9,50,74.9z"/>
    <!-- Bottom-right diagonal tooth -->
    <path d="M73.6,67.6c-1.7-1.7-4.3-1.7-6,0c-1.7,1.7-1.7,4.3,0,6L74,80c0.8,0.8,1.9,1.2,3,1.2c1.1,0,2.2-0.4,3-1.2c1.7-1.7,1.7-4.3,0-6L73.6,67.6z"/>
    <!-- Right tooth -->
    <path d="M93.3,45.8H79.1c-2.3,0-4.2,1.9-4.2,4.2c0,2.3,1.9,4.2,4.2,4.2h14.2c2.3,0,4.2-1.9,4.2-4.2C97.5,47.7,95.6,45.8,93.3,45.8z"/>
    <!-- Top-right diagonal tooth -->
    <path d="M70.6,33.6c1.1,0,2.2-0.4,3-1.2l6.4-6.4c1.7-1.7,1.7-4.3,0-6c-1.7-1.7-4.3-1.7-6,0l-6.4,6.4c-1.7,1.7-1.7,4.3,0,6C68.4,33.2,69.5,33.6,70.6,33.6z"/>
  </g>
</svg>
